<svg xmlns="http://www.w3.org/2000/svg" viewBox="0 0 1200 630" width="1200" height="630">
  <defs>
    <linearGradient id="bg" x1="0" x2="0" y1="0" y2="1">
      <stop offset="0" stop-color="#0e2436"/><stop offset="1" stop-color="#0a1018"/>
    </linearGradient>
    <linearGradient id="wave" x1="0" x2="0" y1="0" y2="1">
      <stop offset="0" stop-color="#4cc9e6"/><stop offset="1" stop-color="#2ba9c8"/>
    </linearGradient>
  </defs>
  <rect width="1200" height="630" fill="url(#bg)"/>
  <circle cx="990" cy="180" r="120" fill="none" stroke="#34d27b" stroke-width="14"/>
  <path d="M990 120 a6 6 0 0 1 0 12" fill="none" stroke="#34d27b" stroke-width="14"/>
  <path d="M0 430 Q150 360 300 430 T600 430 T900 430 T1200 430 V630 H0 Z" fill="url(#wave)" opacity="0.85"/>
  <path d="M0 430 Q150 360 300 430 T600 430 T900 430 T1200 430" fill="none" stroke="#bff2ff" stroke-width="5"/>
  <path d="M0 520 Q150 470 300 520 T600 520 T900 520 T1200 520" fill="none" stroke="#4cc9e6" stroke-width="5" opacity="0.45"/>
  <text x="80" y="250" font-family="Inter,Arial,sans-serif" font-size="86" font-weight="800" fill="#e8eef5" letter-spacing="-3">Lake<tspan fill="#4cc9e6">Level</tspan>Now</text>
  <text x="84" y="318" font-family="Inter,Arial,sans-serif" font-size="38" font-weight="600" fill="#9fb0c4">Live US lake &amp; reservoir water levels</text>
  <text x="84" y="366" font-family="Inter,Arial,sans-serif" font-size="26" font-weight="500" fill="#6b7c91">Current level · percent full · 30-day trend · can I launch?</text>
</svg>
